<?xml version="1.0" encoding="utf-8"?>
<!-- Generator: Adobe Illustrator 19.0.1, SVG Export Plug-In . SVG Version: 6.00 Build 0)  -->
<svg version="1.1" id="Layer_1" xmlns="http://www.w3.org/2000/svg" xmlns:xlink="http://www.w3.org/1999/xlink" x="0px" y="0px"
	 viewBox="0 0 144 144" enable-background="new 0 0 144 144" xml:space="preserve">
<g>
	<g>
		<polyline fill="#FFFFFF" points="95.462,144 95.462,119.257 51.48,119.257 51.48,144 		"/>
		<path fill="#363437" d="M50.677,144v-24.743c0-0.443,0.359-0.802,0.802-0.802h43.982c0.443,0,0.802,0.359,0.802,0.802V144
			 M94.659,143.997v-23.939H52.282V144"/>
	</g>
	<g>
		<g>
			
				<ellipse transform="matrix(-0.9295 -0.3688 0.3688 -0.9295 203.3461 218.0373)" fill="#FFFFFF" cx="122.513" cy="89.583" rx="10.262" ry="17.326"/>
			<path fill="#363437" d="M118.435,106.922c-0.899,0-1.775-0.158-2.609-0.489c-5.67-2.251-7.284-11.64-3.597-20.932l0,0
				c1.759-4.433,4.446-8.203,7.567-10.617c3.24-2.506,6.577-3.272,9.403-2.151c2.822,1.119,4.728,3.965,5.369,8.014
				c0.617,3.896-0.011,8.484-1.77,12.917C129.652,101.589,123.65,106.922,118.435,106.922z M126.533,73.837
				c-1.797,0-3.777,0.787-5.756,2.316c-2.897,2.24-5.402,5.771-7.056,9.941l0,0c-3.361,8.468-2.151,16.923,2.698,18.848
				c4.852,1.923,11.528-3.402,14.888-11.87c1.654-4.17,2.25-8.458,1.678-12.074c-0.548-3.466-2.102-5.871-4.377-6.773
				C127.954,73.965,127.259,73.837,126.533,73.837z"/>
		</g>
		<g>
			
				<ellipse transform="matrix(0.9295 -0.3688 0.3688 0.9295 -31.3197 15.3267)" fill="#FFFFFF" cx="24.428" cy="89.583" rx="10.262" ry="17.326"/>
			<path fill="#363437" d="M28.507,106.922c-5.215,0-11.217-5.333-14.363-13.258c-1.759-4.434-2.389-9.021-1.772-12.917
				c0.641-4.048,2.549-6.894,5.371-8.014c2.829-1.12,6.16-0.354,9.403,2.151c3.119,2.413,5.808,6.184,7.567,10.617
				c3.686,9.291,2.073,18.68-3.597,20.932C30.282,106.764,29.406,106.922,28.507,106.922z M20.409,73.837
				c-0.725,0-1.421,0.128-2.074,0.388c-2.275,0.902-3.829,3.307-4.377,6.773c-0.573,3.617,0.024,7.905,1.678,12.074
				c3.361,8.468,10.046,13.792,14.888,11.87c4.849-1.925,6.058-10.38,2.698-18.848c-1.654-4.17-4.161-7.7-7.058-9.941
				C24.186,74.624,22.206,73.837,20.409,73.837z"/>
		</g>
	</g>
	<g>
		<path fill="#FFFFFF" d="M120.494,75.915c0,33.187-21.053,58.128-47.024,58.128s-47.024-24.941-47.024-58.128
			s-4.604-43.422,47.024-43.422S120.494,42.728,120.494,75.915z"/>
		<path fill="#363437" d="M73.471,134.846c-26.819,0-47.826-25.886-47.826-58.931c0-2.649-0.03-5.151-0.056-7.514
			c-0.16-13.592-0.266-22.571,5.498-28.402c5.91-5.979,17.793-8.309,42.385-8.309s36.476,2.33,42.385,8.309
			c5.762,5.831,5.657,14.811,5.497,28.403c-0.027,2.363-0.056,4.864-0.056,7.512C121.297,108.96,100.29,134.846,73.471,134.846z
			 M73.471,33.295c-24.11,0-35.673,2.196-41.245,7.832c-5.292,5.355-5.189,14.067-5.035,27.256c0.028,2.368,0.058,4.877,0.058,7.533
			c0,32.146,20.303,57.327,46.222,57.327s46.222-25.181,46.222-57.327c0-2.655,0.03-5.163,0.056-7.531
			c0.155-13.189,0.257-21.902-5.035-27.256C109.144,35.49,97.581,33.295,73.471,33.295z"/>
	</g>
	<g>
		<path fill="#FFFFFF" d="M65.259,53.378v41.747c1.083,3.165,4.35,5.465,8.212,5.465s7.129-2.3,8.212-5.465"/>
		<path fill="#363437" d="M73.471,101.192c-4.051,0-7.581-2.359-8.781-5.871c-0.022-0.063-0.033-0.128-0.033-0.195V53.378
			c0-0.332,0.269-0.602,0.602-0.602s0.602,0.269,0.602,0.602v41.646c1.065,2.974,4.111,4.965,7.611,4.965
			c3.536,0,6.607-2.033,7.644-5.058c0.107-0.314,0.448-0.483,0.763-0.374s0.483,0.45,0.374,0.765
			C81.049,98.832,77.521,101.192,73.471,101.192z"/>
	</g>
	<g>
		<g>
			<path fill="#353336" d="M91.185,111.489c0,5.283-7.931,9.566-17.714,9.566s-17.714-4.283-17.714-9.566H91.185z"/>
			<path fill="#363437" d="M73.471,121.657c-10.099,0-18.316-4.561-18.316-10.168c0-0.332,0.269-0.602,0.602-0.602h35.429
				c0.332,0,0.602,0.269,0.602,0.602C91.787,117.095,83.57,121.657,73.471,121.657z M56.396,112.09
				c0.594,4.664,8.025,8.363,17.075,8.363s16.482-3.699,17.075-8.363H56.396z"/>
		</g>
	</g>
	<g>
		<path fill="#363437" d="M47.674,86.358c-0.443,0-0.802-0.359-0.802-0.802v-6.828c0-0.443,0.359-0.802,0.802-0.802
			c0.443,0,0.802,0.359,0.802,0.802v6.828C48.476,86,48.117,86.358,47.674,86.358z"/>
	</g>
	<g>
		<path fill="#363437" d="M100.876,86.358c-0.443,0-0.802-0.359-0.802-0.802v-6.828c0-0.443,0.359-0.802,0.802-0.802
			c0.443,0,0.802,0.359,0.802,0.802v6.828C101.678,86,101.319,86.358,100.876,86.358z"/>
	</g>
	<g>
		<path fill="#363437" d="M36.204,70.56c-0.279,0-0.55-0.146-0.697-0.407c-0.219-0.385-0.083-0.875,0.302-1.094
			c3.417-1.937,7.52-2.961,11.866-2.961c2.992,0,5.859,0.484,8.524,1.438c0.417,0.15,0.633,0.609,0.484,1.025
			c-0.149,0.418-0.606,0.638-1.026,0.485c-2.489-0.892-5.175-1.344-7.982-1.344c-4.069,0-7.898,0.952-11.076,2.753
			C36.475,70.526,36.339,70.56,36.204,70.56z"/>
	</g>
	<g>
		<path fill="#363437" d="M110.738,70.56c-0.135,0-0.271-0.034-0.395-0.104c-3.179-1.801-7.009-2.753-11.076-2.753
			c-2.809,0-5.494,0.452-7.982,1.344c-0.418,0.153-0.876-0.068-1.026-0.484c-0.149-0.418,0.067-0.877,0.484-1.026
			c2.663-0.954,5.53-1.438,8.524-1.438c4.343,0,8.448,1.024,11.866,2.961c0.385,0.219,0.522,0.708,0.302,1.094
			C111.288,70.413,111.017,70.56,110.738,70.56z"/>
	</g>
	<g>
		<path fill="#2CBDC2" d="M128.996,82.074l-2-11.393c0,0-2.569-10.926,0.925-22.062c-11.711-14.465-11.934-19.914-16.314-28.479
			c-37.267-37.381-77.864,0-77.864,0S30.46,31.945,16.242,49.043c5.56,12.26,4.64,23.573,4.64,23.573l-4.157,11.32
			c0,0,6.96,9.694,11.352,11.724c-2.259-28.819,4.49-48.43,4.49-48.43s4.727,9.41,6.993,7.322
			c0.548-4.959,4.633-13.561,4.633-13.561s16.3,14.167,34.712,18.469c-2.519-7.945-2.64-15.338-2.592-17.918
			c4.124,3.458,12.352,9.996,20.837,14.65c0,0,1.015-5.439,4.328-9.493c4.189,1.855,8.615,4.269,13.049,7.429
			c0,0,3.416,15.971,3.3,37.732L128.996,82.074z"/>
		<path fill="#373538" d="M28.076,96.462c-0.114,0-0.229-0.024-0.337-0.074c-4.531-2.095-11.377-11.581-11.667-11.984
			c-0.155-0.215-0.193-0.494-0.102-0.744l4.119-11.211c0.071-1.16,0.547-11.776-4.576-23.074c-0.127-0.28-0.083-0.608,0.113-0.844
			c13.918-16.737,17.312-28.488,17.345-28.605c0.039-0.143,0.119-0.273,0.229-0.374c0.412-0.38,41.591-37.473,78.977,0.024
			c0.058,0.059,0.108,0.127,0.146,0.201c1.197,2.339,2.099,4.48,2.972,6.55c2.347,5.565,4.774,11.319,13.251,21.789
			c0.169,0.208,0.222,0.488,0.143,0.745c-3.389,10.801-0.937,21.531-0.912,21.638l2.01,11.438c0.049,0.276-0.05,0.557-0.262,0.742
			l-11.169,9.786c-0.237,0.208-0.573,0.257-0.862,0.127c-0.287-0.132-0.47-0.419-0.468-0.734c0.105-19.796-2.759-34.953-3.22-37.257
			c-3.774-2.666-7.835-4.989-12.082-6.912c-2.844,3.781-3.776,8.601-3.785,8.652c-0.047,0.252-0.213,0.467-0.445,0.577
			c-0.233,0.11-0.504,0.102-0.729-0.021c-7.703-4.225-15.198-9.993-19.649-13.646c0.06,3.413,0.5,9.486,2.554,15.968
			c0.088,0.275,0.02,0.575-0.175,0.787c-0.196,0.212-0.493,0.302-0.771,0.236c-16.065-3.753-30.684-15.064-34.237-17.963
			c-1.056,2.348-3.707,8.541-4.128,12.363c-0.022,0.193-0.111,0.371-0.254,0.502c-0.464,0.427-1.034,0.597-1.661,0.48
			c-2.007-0.366-4.354-3.986-5.67-6.308c-1.553,5.489-5.728,22.927-3.898,46.283c0.024,0.284-0.107,0.559-0.342,0.721
			C28.397,96.413,28.238,96.462,28.076,96.462z M17.625,83.809c1.134,1.536,5.9,7.84,9.54,10.386
			c-1.896-27.83,4.576-47.03,4.644-47.225c0.105-0.306,0.382-0.518,0.705-0.54c0.32-0.016,0.627,0.154,0.769,0.44
			c1.421,2.826,4.051,6.92,5.449,7.175c0.031,0.005,0.058,0.009,0.083,0.009c0.714-5.07,4.489-13.061,4.655-13.407
			c0.107-0.227,0.315-0.39,0.559-0.441c0.246-0.052,0.501,0.015,0.691,0.179c0.157,0.137,15.562,13.394,33.01,17.957
			c-2.137-7.455-2.269-14.172-2.218-16.816c0.006-0.309,0.188-0.588,0.47-0.715c0.28-0.127,0.611-0.082,0.848,0.115
			c3.973,3.332,11.706,9.478,19.781,14.045c0.476-1.836,1.705-5.669,4.249-8.78c0.229-0.28,0.614-0.374,0.945-0.226
			c4.65,2.059,9.088,4.585,13.19,7.51c0.163,0.117,0.277,0.29,0.32,0.486c0.033,0.156,3.246,15.426,3.318,36.129l9.497-8.321
			l-1.922-10.95c-0.097-0.405-2.508-10.961,0.824-22.028c-8.404-10.437-10.849-16.234-13.213-21.843
			c-0.849-2.01-1.725-4.087-2.865-6.331c-35.092-35.077-73.683-2.505-76.503-0.031c-0.541,1.767-4.274,12.85-17.27,28.583
			c5.357,12.125,4.54,23.047,4.503,23.511c-0.005,0.072-0.02,0.143-0.045,0.212L17.625,83.809z"/>
	</g>
	<g>
		<path fill="#FFFFFF" d="M65.413,119.962c2.427,0.675,5.14,1.093,8.058,1.093c3.188,0,6.138-0.491,8.722-1.287
			c-0.829-2.761-4.257-4.833-8.368-4.833C69.618,114.935,66.136,117.105,65.413,119.962z"/>
	</g>
</g>
</svg>
