<?xml version="1.0" encoding="utf-8"?>
<!-- Generator: Adobe Illustrator 19.0.1, SVG Export Plug-In . SVG Version: 6.00 Build 0)  -->
<svg version="1.1" id="Layer_1" xmlns="http://www.w3.org/2000/svg" xmlns:xlink="http://www.w3.org/1999/xlink" x="0px" y="0px"
	 viewBox="0 0 144 144" enable-background="new 0 0 144 144" xml:space="preserve">
<g>
	<g>
		<path fill="#2CBDC2" d="M130.474,131.117V62.674c0-29.748-25.436-53.864-56.814-53.864S16.847,32.925,16.847,62.674v68.443"/>
		<path fill="#373538" d="M130.474,131.817c-0.387,0-0.7-0.313-0.7-0.7V62.674c0-29.315-25.173-53.164-56.114-53.164
			S17.548,33.359,17.548,62.674v68.443c0,0.387-0.313,0.7-0.7,0.7s-0.7-0.313-0.7-0.7V62.674c0-30.087,25.8-54.565,57.513-54.565
			c31.714,0,57.514,24.478,57.514,54.565v68.443C131.174,131.504,130.861,131.817,130.474,131.817z"/>
	</g>
	<g>
		<path fill="#FFFFFF" d="M92.873,126.045v-21.598H54.481v21.598c0,0,0,10.468,19.196,10.468S92.873,126.045,92.873,126.045z"/>
		<path fill="#363437" d="M73.678,137.214c-19.671,0-19.897-10.713-19.897-11.169v-21.598c0-0.387,0.313-0.7,0.7-0.7h38.391
			c0.387,0,0.7,0.313,0.7,0.7v21.598C93.573,126.501,93.347,137.214,73.678,137.214z M55.181,105.147v20.898
			c0.004,0.396,0.305,9.768,18.496,9.768c18.171,0,18.491-9.352,18.495-9.771v-20.896H55.181z"/>
	</g>
	<g>
		
			<ellipse transform="matrix(-0.9295 -0.3688 0.3688 -0.9295 191.5968 188.9696)" fill="#FFFFFF" cx="113.86" cy="76.172" rx="8.917" ry="15.055"/>
		<path fill="#373538" d="M110.316,91.241c-0.781,0-1.543-0.138-2.267-0.425c-4.927-1.956-6.33-10.116-3.128-18.192l0,0
			c1.529-3.852,3.865-7.129,6.577-9.227c2.817-2.179,5.72-2.845,8.174-1.869c2.453,0.974,4.111,3.447,4.667,6.966
			c0.536,3.386-0.011,7.373-1.54,11.226C120.066,86.606,114.851,91.241,110.316,91.241z M106.223,73.141
			c-2.918,7.357-1.868,14.702,2.343,16.373c4.216,1.679,10.015-2.957,12.932-10.312c1.439-3.623,1.956-7.348,1.459-10.49
			c-0.477-3.01-1.827-5.099-3.802-5.883c-1.977-0.786-4.39-0.188-6.799,1.675C109.839,66.451,107.66,69.519,106.223,73.141
			L106.223,73.141z"/>
	</g>
	<g>
		<path fill="#FFFFFF" d="M114.582,72.042c-0.027,2.59-0.062,5.243-0.062,7.944c0,28.837-18.294,36.787-40.86,36.787
			c-22.566,0-40.86-7.951-40.86-36.787c0-1.622-0.013-3.224-0.029-4.809c1.308-0.239,33.169-6.286,51.458-32.217
			C84.229,42.96,113.86,45.855,114.582,72.042z"/>
		<path fill="#373538" d="M73.661,117.473c-27.965,0-41.56-12.262-41.56-37.487c0-1.62-0.014-3.22-0.03-4.801l-0.005-0.591
			l0.58-0.105c1.335-0.243,32.905-6.257,51.013-31.932l0.234-0.333l0.406,0.04c0.302,0.029,30.254,3.262,30.985,29.759l-0.015,1.371
			c-0.023,2.159-0.048,4.359-0.048,6.592C115.22,105.211,101.626,117.473,73.661,117.473z M33.477,75.752
			c0.014,1.397,0.025,2.808,0.025,4.234c0,24.283,13.137,36.087,40.16,36.087s40.158-11.804,40.158-36.087
			c0-2.238,0.025-4.444,0.048-6.608l0.015-1.33c-0.662-23.63-25.834-27.869-29.323-28.342
			C67.217,67.972,38.095,74.803,33.477,75.752z"/>
	</g>
	<g>
		<path fill="#FFFFFF" d="M66.525,82.957c0.941,2.75,3.779,7.607,7.136,7.607s6.195-4.857,7.136-7.607"/>
		<path fill="#373538" d="M73.66,91.089c-3.575,0-6.578-4.884-7.631-7.962c-0.094-0.275,0.052-0.573,0.327-0.667
			c0.274-0.096,0.573,0.053,0.666,0.327c1.031,3.011,3.772,7.252,6.638,7.252c2.868,0,5.608-4.241,6.639-7.252
			c0.093-0.274,0.39-0.423,0.666-0.327c0.275,0.094,0.421,0.392,0.327,0.667C80.239,86.205,77.236,91.089,73.66,91.089z"/>
	</g>
	<g>
		<path fill="#363437" d="M87.437,69.851c-0.144,0-0.287-0.059-0.391-0.174c-0.193-0.215-0.175-0.548,0.04-0.741
			c2.17-1.948,5.771-3.111,9.636-3.111c2.474,0,4.833,0.465,6.824,1.344c0.265,0.118,0.386,0.427,0.268,0.693
			c-0.116,0.265-0.431,0.383-0.692,0.269c-1.859-0.821-4.071-1.255-6.4-1.255c-3.612,0-6.951,1.063-8.933,2.842
			C87.687,69.806,87.562,69.851,87.437,69.851z"/>
	</g>
	<g>
		<path fill="#363437" d="M59.884,69.851c-0.126,0-0.25-0.044-0.351-0.135c-1.023-0.919-2.447-1.668-4.114-2.166
			c-0.278-0.083-0.436-0.375-0.353-0.654c0.083-0.278,0.371-0.436,0.654-0.353c1.815,0.542,3.376,1.369,4.516,2.392
			c0.215,0.194,0.232,0.525,0.04,0.741C60.172,69.792,60.028,69.851,59.884,69.851z"/>
	</g>
	<g>
		<path fill="#FFFFFF" d="M95.662,94.903c0,6.562-9.85,11.881-22.001,11.881s-22.001-5.319-22.001-11.881H95.662z"/>
		<path fill="#373538" d="M73.66,107.309c-12.422,0-22.526-5.565-22.526-12.406c0-0.29,0.235-0.525,0.525-0.525h44.004
			c0.29,0,0.525,0.235,0.525,0.525C96.188,101.744,86.081,107.309,73.66,107.309z M52.207,95.428
			c0.521,6.019,9.943,10.83,21.453,10.83s20.933-4.812,21.454-10.83H52.207z"/>
	</g>
	<g>
		<path fill="#373538" d="M73.66,99.636c-7.101,0-14.018-0.254-20.688-0.723c3.05,4.585,11.148,7.87,20.688,7.87
			s17.639-3.285,20.688-7.87C87.679,99.383,80.762,99.636,73.66,99.636z"/>
	</g>
	<g>
		<g>
			<path fill="#373538" d="M52.669,84.235c-0.387,0-0.7-0.313-0.7-0.7v-8.348c0-0.387,0.313-0.7,0.7-0.7c0.387,0,0.7,0.313,0.7,0.7
				v8.348C53.369,83.922,53.056,84.235,52.669,84.235z"/>
		</g>
		<g>
			<path fill="#373538" d="M48.325,73.434c0,0,0.257,0.24,0.69,0.527c0.438,0.276,1.027,0.632,1.66,0.814
				c0.318,0.081,0.636,0.13,0.926,0.151c0.285,0.051,0.555,0.11,0.797,0.132c0.119,0.004,0.236,0.043,0.34,0.055
				c0.102,0.002,0.194,0.01,0.274,0.026c0.158,0.019,0.258,0.044,0.258,0.044l0.028,0.081c0,0-0.069,0.069-0.208,0.166
				c-0.135,0.114-0.351,0.221-0.633,0.306c-0.279,0.072-0.63,0.134-0.992,0.073c-0.363-0.061-0.718-0.228-1.052-0.399
				c-1.369-0.684-2.154-1.921-2.154-1.921L48.325,73.434z"/>
		</g>
		<g>
			<g>
				<path fill="#373538" d="M94.652,84.235c-0.387,0-0.7-0.313-0.7-0.7v-8.348c0-0.387,0.313-0.7,0.7-0.7c0.387,0,0.7,0.313,0.7,0.7
					v8.348C95.352,83.922,95.039,84.235,94.652,84.235z"/>
			</g>
			<g>
				<path fill="#373538" d="M99.061,73.49c0,0-0.785,1.237-2.154,1.921c-0.334,0.171-0.689,0.338-1.052,0.399
					c-0.362,0.062-0.713,0-0.992-0.073c-0.282-0.085-0.498-0.192-0.632-0.306c-0.139-0.097-0.208-0.166-0.208-0.166l0.027-0.081
					c0,0,0.101-0.025,0.258-0.044c0.08-0.015,0.173-0.024,0.274-0.026c0.104-0.013,0.221-0.051,0.34-0.055
					c0.241-0.022,0.511-0.082,0.797-0.132c0.29-0.021,0.608-0.07,0.927-0.151c0.633-0.182,1.222-0.538,1.66-0.814
					c0.433-0.288,0.69-0.527,0.69-0.527L99.061,73.49z"/>
			</g>
		</g>
	</g>
	<g>
		<path fill="#FFFFFF" d="M32.772,75.177c0.016,1.585,0.029,3.187,0.029,4.809c0,3.542,0.283,6.761,0.808,9.697
			c-3.264-1.593-6.485-5.301-8.437-10.221c-0.377-0.949-0.685-1.898-0.934-2.837C24.238,76.624,31.481,75.443,32.772,75.177z"/>
		<path fill="#373538" d="M33.61,90.383c-0.104,0-0.209-0.023-0.306-0.071c-3.554-1.733-6.838-5.694-8.782-10.592
			c-0.375-0.946-0.697-1.927-0.96-2.915c-0.051-0.191-0.018-0.395,0.089-0.561c0.108-0.165,0.28-0.278,0.476-0.31
			c0.071-0.012,7.243-1.182,8.505-1.442c0.207-0.042,0.418,0.01,0.58,0.141c0.163,0.131,0.258,0.328,0.261,0.537
			c0.016,1.587,0.03,3.191,0.03,4.817c0,3.402,0.268,6.623,0.797,9.573c0.046,0.26-0.056,0.523-0.267,0.682
			C33.908,90.335,33.759,90.383,33.61,90.383z M25.124,77.188c0.205,0.683,0.439,1.357,0.699,2.014
			c1.586,3.996,4.09,7.308,6.86,9.141c-0.386-2.621-0.581-5.426-0.581-8.358c0-1.336-0.01-2.658-0.022-3.967
			C30.302,76.337,26.71,76.929,25.124,77.188z"/>
	</g>
	<g>
		<path fill="#FFFFFF" d="M73.661,106.784c2.461,0,4.819-0.226,7.026-0.629c-0.528-1.87-3.458-3.306-7.026-3.306
			c-3.568,0-6.498,1.436-7.026,3.306C68.842,106.558,71.2,106.784,73.661,106.784z"/>
	</g>
</g>
</svg>
