<?xml version="1.0" encoding="utf-8"?>
<!-- Generator: Adobe Illustrator 19.0.1, SVG Export Plug-In . SVG Version: 6.00 Build 0)  -->
<svg version="1.1" id="Layer_1" xmlns="http://www.w3.org/2000/svg" xmlns:xlink="http://www.w3.org/1999/xlink" x="0px" y="0px"
	 viewBox="0 0 144 144" enable-background="new 0 0 144 144" xml:space="preserve">
<g>
	<g>
		<g>
			<path fill="#30BEC3" d="M132.087,112.584c0.019-7.367,0.031-36.056,0.031-36.691c0-36.207-29.351-65.559-65.559-65.559
				S1,39.686,1,75.894c0,0.635,0.012,29.323,0.031,36.691H132.087z"/>
		</g>
		<g>
			<g>
				<g>
					<line fill="#FFFFFF" x1="41.506" y1="60.719" x2="41.506" y2="69.34"/>
				</g>
				<g>
					<path fill="#383538" d="M41.506,71.154c-1.002,0-1.814-0.812-1.814-1.814v-8.621c0-1.002,0.812-1.814,1.814-1.814
						s1.814,0.812,1.814,1.814v8.621C43.32,70.342,42.508,71.154,41.506,71.154z"/>
				</g>
			</g>
			<g>
				<g>
					<line fill="#FFFFFF" x1="103.293" y1="60.719" x2="103.293" y2="69.34"/>
				</g>
				<g>
					<path fill="#383538" d="M103.293,71.154c-1.002,0-1.814-0.812-1.814-1.814v-8.621c0-1.002,0.812-1.814,1.814-1.814
						s1.814,0.812,1.814,1.814v8.621C105.107,70.342,104.295,71.154,103.293,71.154z"/>
				</g>
			</g>
		</g>
		<g>
			<g>
				<path fill="#FFFFFF" d="M108.372,78.68c0.904,0,1.767,0.299,2.377,0.823c0.61,0.524,0.911,1.226,0.831,1.933
					c-1.774,15.771-18.639,28.138-39.181,28.138c-20.543,0-37.408-12.368-39.181-28.141c-0.08-0.707,0.222-1.408,0.833-1.932
					c0.612-0.523,1.475-0.821,2.379-0.821H108.372z"/>
			</g>
			<g>
				<path fill="#383538" d="M72.4,111.181c-10.231,0-20.023-3.005-27.571-8.46c-7.605-5.496-12.295-12.993-13.208-21.108
					c-0.141-1.242,0.364-2.458,1.385-3.332c0.91-0.779,2.126-1.208,3.425-1.208h71.941c1.281,0,2.529,0.441,3.425,1.211
					c1.017,0.874,1.521,2.088,1.381,3.332c-0.913,8.115-5.604,15.611-13.209,21.107C92.421,108.177,82.63,111.181,72.4,111.181z
					 M36.431,80.288c-0.517,0-1.016,0.162-1.334,0.434c-0.093,0.08-0.308,0.292-0.281,0.53c0.81,7.205,5.035,13.903,11.896,18.863
					c7.005,5.063,16.127,7.851,25.688,7.851c9.56,0,18.682-2.788,25.687-7.85c6.861-4.959,11.086-11.656,11.897-18.86
					c0.026-0.232-0.165-0.434-0.281-0.534c-0.317-0.272-0.814-0.434-1.33-0.434H36.431z"/>
			</g>
		</g>
		<g>
			<g>
				<g>
					<line fill="#FFFFFF" x1="45.098" y1="78.68" x2="45.098" y2="100.715"/>
				</g>
				<g>
					<rect x="43.647" y="78.68" fill="#383538" width="2.903" height="22.035"/>
				</g>
			</g>
			<g>
				<g>
					<line fill="#FFFFFF" x1="63.299" y1="78.68" x2="63.299" y2="108.81"/>
				</g>
				<g>
					<rect x="61.848" y="78.68" fill="#383538" width="2.903" height="30.13"/>
				</g>
			</g>
			<g>
				<g>
					<line fill="#FFFFFF" x1="81.5" y1="78.648" x2="81.5" y2="107.734"/>
				</g>
				<g>
					<rect x="80.049" y="78.648" fill="#383538" width="2.903" height="29.086"/>
				</g>
			</g>
			<g>
				<g>
					<line fill="#FFFFFF" x1="99.701" y1="78.68" x2="99.701" y2="100.715"/>
				</g>
				<g>
					<rect x="98.25" y="78.68" fill="#383538" width="2.903" height="22.035"/>
				</g>
			</g>
		</g>
		<g>
			<path fill="#383538" d="M99.701,98.627V79.203H81.5v29.387C88.469,106.938,94.717,103.437,99.701,98.627z"/>
		</g>
		<g>
			<g>
				
					<rect x="33.785" y="29.304" transform="matrix(0.7071 0.7071 -0.7071 0.7071 40.8728 -15.3105)" fill="#FFFFFF" width="10.269" height="24.765"/>
			</g>
			<g>
				<path fill="#383538" d="M33.795,56.125l-9.314-9.313l19.563-19.564l9.314,9.313L33.795,56.125z M28.586,46.812l5.209,5.208
					l15.459-15.459l-5.209-5.208L28.586,46.812z"/>
			</g>
		</g>
		<g>
			<g>
				
					<rect x="33.785" y="29.304" transform="matrix(-0.7071 0.7071 -0.7071 -0.7071 95.9156 43.6435)" fill="#FFFFFF" width="10.268" height="24.765"/>
			</g>
			<g>
				<path fill="#383538" d="M44.044,56.125L24.48,36.561l9.314-9.313l19.563,19.564L44.044,56.125z M28.585,36.561L44.044,52.02
					l5.208-5.208L33.794,31.353L28.585,36.561z"/>
			</g>
		</g>
		<g>
			<g>
				<path fill="#383538" d="M139.733,112.643l-3.627-0.112c0.022-0.954,0.038-36.757,0.038-38.342
					c0-17.027-6.631-33.035-18.67-45.074c-12.04-12.04-28.047-18.67-45.074-18.67s-33.035,6.631-45.075,18.67
					c-12.04,12.04-18.67,28.048-18.67,45.074c0,1.585,0.016,37.387,0.038,38.342l-3.626,0.112c-0.025-0.767-0.04-38.081-0.04-38.453
					c0-17.996,7.008-34.915,19.733-47.64C37.485,13.825,54.404,6.817,72.4,6.817s34.915,7.008,47.64,19.733
					c12.725,12.725,19.733,29.644,19.733,47.64C139.773,74.562,139.758,111.876,139.733,112.643z"/>
			</g>
		</g>
	</g>
	<g>
		<path fill="#363636" d="M8.316,126.245l3.576,5.231c0.042,0.083,0.083,0.186,0.083,0.29c0,0.31-0.372,0.682-0.724,0.682
			c-0.165,0-0.31-0.083-0.413-0.248l-3.474-5.107l-1.902,1.675v3.081c0,0.269-0.289,0.538-0.683,0.538
			c-0.372,0-0.661-0.269-0.661-0.538v-14.742c0-0.29,0.289-0.496,0.661-0.496c0.394,0,0.683,0.207,0.683,0.496v10.069l5.045-4.486
			c0.104-0.062,0.207-0.124,0.311-0.124c0.33,0,0.682,0.29,0.682,0.641c0,0.124-0.021,0.269-0.145,0.373L8.316,126.245z"/>
		<path fill="#363636" d="M15.1,118.844c0,0.455-0.394,0.868-0.89,0.868c-0.517,0-0.93-0.414-0.93-0.868
			c0-0.455,0.413-0.848,0.93-0.848C14.707,117.996,15.1,118.389,15.1,118.844z M14.893,123.103v8.746
			c0,0.269-0.311,0.538-0.683,0.538s-0.661-0.269-0.661-0.538v-8.746c0-0.29,0.289-0.497,0.661-0.497S14.893,122.813,14.893,123.103
			z"/>
		<path fill="#363636" d="M17.148,128.602v-2.212c0-2.191,1.24-3.908,3.99-3.908c1.758,0,2.915,0.786,2.915,1.344
			c0,0.29-0.269,0.662-0.6,0.662c-0.393,0-0.744-0.765-2.253-0.765c-1.799,0-2.709,1.013-2.709,2.667v2.212
			c0,1.675,0.91,2.688,2.729,2.688c1.592,0,1.923-0.786,2.336-0.786c0.372,0,0.62,0.352,0.62,0.662c0,0.558-1.199,1.364-3.019,1.364
			C18.409,132.531,17.148,130.856,17.148,128.602z"/>
		<path fill="#363636" d="M30.197,126.245l3.576,5.231c0.042,0.083,0.083,0.186,0.083,0.29c0,0.31-0.372,0.682-0.724,0.682
			c-0.165,0-0.31-0.083-0.413-0.248l-3.474-5.107l-1.902,1.675v3.081c0,0.269-0.289,0.538-0.683,0.538
			c-0.372,0-0.661-0.269-0.661-0.538v-14.742c0-0.29,0.289-0.496,0.661-0.496c0.394,0,0.683,0.207,0.683,0.496v10.069l5.045-4.486
			c0.104-0.062,0.207-0.124,0.311-0.124c0.33,0,0.682,0.29,0.682,0.641c0,0.124-0.021,0.269-0.145,0.373L30.197,126.245z"/>
		<path fill="#363636" d="M36.733,123.103v0.951c0.454-0.806,1.405-1.571,2.771-1.571c2.047,0,3.722,1.737,3.722,3.867v2.253
			c0,2.047-1.717,3.928-3.66,3.928c-1.261,0-2.336-0.744-2.791-1.592v5.727c0,0.248-0.289,0.517-0.683,0.517
			c-0.372,0-0.661-0.269-0.661-0.517v-13.563c0-0.29,0.289-0.497,0.661-0.497C36.443,122.606,36.733,122.813,36.733,123.103z
			 M41.88,126.349c0-1.323-1.178-2.626-2.604-2.626c-1.241,0-2.502,0.972-2.502,2.626v2.895c0,0.62,1.075,2.047,2.543,2.047
			c1.364,0,2.563-1.323,2.563-2.688V126.349z"/>
		<path fill="#363636" d="M45.336,128.644v-5.521c0-0.248,0.289-0.517,0.683-0.517c0.352,0,0.661,0.269,0.661,0.517v5.521
			c0,1.344,1.138,2.646,2.585,2.646c1.426,0,2.584-1.282,2.584-2.646v-5.541c0-0.269,0.311-0.497,0.683-0.497
			s0.661,0.228,0.661,0.497v5.541c0,2.067-1.799,3.887-3.928,3.887C47.094,132.531,45.336,130.691,45.336,128.644z"/>
		<path fill="#363636" d="M57.041,131.849c0,0.269-0.311,0.538-0.683,0.538c-0.393,0-0.661-0.269-0.661-0.538v-8.746
			c0-0.29,0.269-0.497,0.661-0.497c0.331,0,0.62,0.207,0.62,0.497v0.951c0.435-0.806,1.386-1.571,2.771-1.571
			c1.984,0,3.68,1.737,3.68,3.867v5.5c0,0.352-0.352,0.538-0.683,0.538c-0.31,0-0.661-0.186-0.661-0.538v-5.5
			c0-1.323-1.158-2.626-2.585-2.626c-1.22,0-2.46,0.972-2.46,2.626V131.849z"/>
		<path fill="#363636" d="M65.604,128.602v-2.212c0-2.191,1.24-3.908,3.99-3.908c1.758,0,2.915,0.786,2.915,1.344
			c0,0.29-0.269,0.662-0.6,0.662c-0.393,0-0.744-0.765-2.253-0.765c-1.799,0-2.709,1.013-2.709,2.667v2.212
			c0,1.675,0.91,2.688,2.729,2.688c1.592,0,1.923-0.786,2.336-0.786c0.372,0,0.62,0.352,0.62,0.662c0,0.558-1.199,1.364-3.019,1.364
			C66.865,132.531,65.604,130.856,65.604,128.602z"/>
		<path fill="#363636" d="M75.799,131.849c0,0.269-0.311,0.538-0.683,0.538s-0.661-0.269-0.661-0.538v-14.742
			c0-0.29,0.289-0.496,0.661-0.496s0.683,0.207,0.683,0.496v6.947c0.435-0.806,1.364-1.571,2.729-1.571
			c1.984,0,3.659,1.737,3.659,3.867v5.5c0,0.352-0.331,0.538-0.683,0.538c-0.31,0-0.661-0.186-0.661-0.538v-5.5
			c0-1.323-1.158-2.626-2.563-2.626c-1.221,0-2.481,0.972-2.481,2.626V131.849z"/>
		<path fill="#363636" d="M84.487,128.747v-2.481c0-2.109,1.199-3.763,3.783-3.763c1.654,0,2.709,0.786,2.709,1.22
			c0,0.186-0.187,0.352-0.372,0.352c-0.352,0-0.703-0.848-2.337-0.848c-1.984,0-3.06,1.158-3.06,3.039v2.481
			c0,1.882,1.055,3.04,3.081,3.04c1.736,0,2.088-0.848,2.46-0.848c0.187,0,0.352,0.166,0.352,0.352c0,0.434-1.075,1.22-2.833,1.22
			C85.707,132.51,84.487,130.897,84.487,128.747z"/>
		<path fill="#363636" d="M96.729,123.227c-1.447,0-2.874,1.116-2.874,2.998v5.789c0,0.186-0.166,0.372-0.372,0.372
			c-0.207,0-0.352-0.186-0.352-0.372v-9.035c0-0.207,0.145-0.352,0.352-0.352c0.206,0,0.372,0.145,0.372,0.352v1.096
			c0.476-0.807,1.427-1.571,2.874-1.571h0.765c0.187,0,0.352,0.165,0.352,0.372c0,0.186-0.165,0.352-0.352,0.352H96.729z"/>
		<path fill="#363636" d="M105.953,126.225c0,1.509-0.827,1.55-1.716,1.55h-4.9v0.972c0,1.882,1.468,3.04,3.494,3.04
			c1.736,0,2.047-0.848,2.439-0.848c0.187,0,0.372,0.207,0.372,0.372c0,0.393-1.075,1.199-2.854,1.199
			c-2.439,0-4.176-1.509-4.176-3.763v-2.584c0-1.985,1.675-3.66,3.68-3.66C104.237,122.503,105.953,124.075,105.953,126.225z
			 M103.988,127.052c1.014,0,1.241-0.124,1.241-0.765c0-1.489-1.158-3.06-2.937-3.06c-1.675,0-2.956,1.385-2.956,2.936v0.889
			H103.988z"/>
		<path fill="#363636" d="M114.184,126.473v5.541c0,0.207-0.145,0.372-0.352,0.372s-0.372-0.166-0.372-0.372v-1.075
			c-0.703,0.806-1.737,1.571-3.102,1.571c-1.612,0-2.874-0.868-2.874-2.729c0-2.192,1.943-2.729,4.817-2.729h1.158v-0.579
			c0-1.551-0.766-3.246-2.729-3.246c-1.282,0-1.902,0.558-2.15,0.558c-0.228,0-0.372-0.269-0.372-0.414
			c0-0.393,1.303-0.868,2.563-0.868C113.315,122.503,114.184,124.426,114.184,126.473z M113.46,127.775h-1.138
			c-2.129,0-4.114,0.207-4.114,2.006c0,1.385,0.931,2.005,2.13,2.005c1.551,0,3.122-1.385,3.122-2.274V127.775z"/>
		<path fill="#363636" d="M116.874,118.203c0-0.207,0.187-0.352,0.352-0.352c0.187,0,0.372,0.145,0.372,0.352v4.425h2.792
			c0.186,0,0.351,0.166,0.351,0.372c0,0.186-0.165,0.352-0.351,0.352h-2.792v6.161c0,1.571,0.6,2.15,2.295,2.15h0.476
			c0.187,0,0.352,0.145,0.352,0.352c0,0.207-0.165,0.372-0.352,0.372h-0.476c-1.964,0-3.019-0.868-3.019-2.874V118.203z"/>
		<path fill="#363636" d="M123.533,118.74c0,0.352-0.289,0.662-0.641,0.662c-0.372,0-0.662-0.31-0.662-0.662s0.29-0.641,0.662-0.641
			C123.244,118.099,123.533,118.389,123.533,118.74z M123.264,122.979v9.035c0,0.186-0.166,0.372-0.372,0.372
			c-0.187,0-0.352-0.186-0.352-0.372v-9.035c0-0.207,0.165-0.352,0.352-0.352C123.098,122.627,123.264,122.772,123.264,122.979z"/>
		<path fill="#363636" d="M132.382,122.979c0,0.103-0.062,0.248-0.083,0.31l-3.225,8.973c-0.062,0.145-0.187,0.248-0.352,0.248
			c-0.187,0-0.29-0.083-0.352-0.248l-3.226-8.973c-0.021-0.062-0.083-0.207-0.083-0.29c0-0.207,0.166-0.372,0.372-0.372
			c0.146,0,0.29,0.083,0.352,0.228l2.937,8.125l2.915-8.001c0.062-0.166,0.083-0.352,0.352-0.352
			C132.175,122.627,132.382,122.772,132.382,122.979z"/>
		<path fill="#363636" d="M141.172,126.225c0,1.509-0.827,1.55-1.716,1.55h-4.9v0.972c0,1.882,1.468,3.04,3.494,3.04
			c1.736,0,2.047-0.848,2.439-0.848c0.187,0,0.372,0.207,0.372,0.372c0,0.393-1.075,1.199-2.854,1.199
			c-2.439,0-4.176-1.509-4.176-3.763v-2.584c0-1.985,1.675-3.66,3.68-3.66C139.457,122.503,141.172,124.075,141.172,126.225z
			 M139.208,127.052c1.014,0,1.241-0.124,1.241-0.765c0-1.489-1.158-3.06-2.937-3.06c-1.675,0-2.956,1.385-2.956,2.936v0.889
			H139.208z"/>
	</g>
</g>
</svg>
